{"glyphs":{"0":{"ha":1119,"x_min":0,"x_max":964,"o":"m 378 1111 l 663 1111 l 964 494 l 964 319 l 651 -278 l 375 -278 l 0 319 l 0 532 l 378 1111 m 461 661 l 307 381 l 482 82 l 617 417 l 461 661 z "},"1":{"ha":694,"x_min":0,"x_max":540,"o":"m 0 903 l 242 1111 l 519 1111 l 540 -278 l 235 -278 l 225 708 l 0 604 l 0 903 z "},"2":{"ha":1114,"x_min":0,"x_max":964,"o":"m 0 1111 l 618 1111 l 964 858 l 936 410 l 476 7 l 897 7 l 964 -278 l 0 -278 l 0 -12 l 519 390 l 510 740 l 0 799 l 0 1111 z "},"3":{"ha":1114,"x_min":0,"x_max":964,"o":"m 0 1111 l 749 1111 l 964 824 l 964 490 l 844 396 l 964 290 l 964 -107 l 818 -278 l 0 -278 l 72 15 l 421 15 l 640 196 l 374 417 l 617 657 l 482 824 l 38 804 l 0 1111 z "},"4":{"ha":1106,"x_min":0,"x_max":917,"o":"m 0 1111 l 282 1111 l 314 489 l 793 506 l 917 222 l 650 222 l 644 -278 l 379 -278 l 357 200 l 74 168 l 0 1111 z "},"5":{"ha":1108,"x_min":0,"x_max":964,"o":"m 964 1111 l 885 793 l 336 801 l 332 490 l 824 454 l 964 188 l 964 -74 l 797 -278 l 0 -278 l 110 -21 l 619 -8 l 575 214 l 75 293 l 0 1111 l 964 1111 z "},"6":{"ha":1119,"x_min":0,"x_max":964,"o":"m 221 1111 l 964 1111 l 901 813 l 349 813 l 276 494 l 724 499 l 964 307 l 964 -21 l 788 -278 l 254 -278 l 0 74 l 0 683 l 221 1111 m 333 260 l 333 6 l 690 -21 l 690 226 l 333 260 z "},"7":{"ha":1111,"x_min":0,"x_max":964,"o":"m 0 1111 l 964 1111 l 607 -278 l 218 -278 l 574 819 l 78 819 l 0 1111 z "},"8":{"ha":1114,"x_min":0,"x_max":964,"o":"m 197 1111 l 760 1111 l 964 910 l 964 588 l 840 417 l 964 194 l 964 -124 l 738 -278 l 224 -278 l 0 -103 l 0 251 l 119 431 l 0 535 l 0 947 l 197 1111 m 251 885 l 310 618 l 674 618 l 700 878 l 251 885 m 674 251 l 271 194 l 197 -43 l 738 -62 l 674 251 z "},"9":{"ha":1108,"x_min":0,"x_max":964,"o":"m 743 -278 l 0 -278 l 63 21 l 614 21 l 686 253 l 240 250 l 0 440 l 0 854 l 175 1111 l 708 1111 l 964 760 l 964 -86 l 743 -278 m 629 519 l 629 828 l 303 814 l 289 557 l 629 519 z "},"«":{"ha":506,"x_min":46,"x_max":414,"o":"m 46 0 l 46 925 l 414 925 l 414 0 l 46 0 m 92 46 l 368 46 l 368 879 l 92 879 l 92 46 z "},"¬":{"ha":506,"x_min":46,"x_max":414,"o":"m 46 0 l 46 925 l 414 925 l 414 0 l 46 0 m 92 46 l 368 46 l 368 879 l 92 879 l 92 46 z "},"µ":{"ha":506,"x_min":46,"x_max":414,"o":"m 46 0 l 46 925 l 414 925 l 414 0 l 46 0 m 92 46 l 368 46 l 368 879 l 92 879 l 92 46 z "},"¶":{"ha":506,"x_min":46,"x_max":414,"o":"m 46 0 l 46 925 l 414 925 l 414 0 l 46 0 m 92 46 l 368 46 l 368 879 l 92 879 l 92 46 z "},"!":{"ha":456,"x_min":7,"x_max":335,"o":"m 44 1111 l 333 1111 l 264 154 l 8 150 l 44 1111 m 268 25 l 275 -231 l 7 -231 l 7 21 l 268 25 z "},"\"":{"ha":597,"x_min":0,"x_max":472,"o":"m 222 1113 l 356 1113 l 471 864 l 289 843 l 222 1113 m 0 1111 l 160 1111 l 222 843 l 67 817 l 0 1111 z "},"'":{"ha":386,"x_min":0,"x_max":274,"o":"m 0 1111 l 186 1110 l 274 851 l 108 817 l 0 1111 z "},"(":{"ha":708,"x_min":0,"x_max":575,"o":"m 574 1111 l 513 900 l 186 449 l 513 -64 l 574 -260 l 186 -260 l 0 74 l 0 786 l 224 1111 l 574 1111 z "},")":{"ha":706,"x_min":0,"x_max":583,"o":"m 0 1111 l 356 1111 l 582 782 l 582 60 l 393 -278 l 0 -278 l 63 -79 l 393 440 l 63 897 l 0 1111 z "},"*":{"ha":808,"x_min":0,"x_max":675,"o":"m 213 1086 l 385 1108 l 399 878 l 522 1038 l 675 885 l 471 757 l 624 675 l 492 492 l 332 667 l 315 460 l 101 519 l 185 717 l 0 790 l 83 976 l 222 885 l 213 1086 z "},"+":{"ha":768,"x_min":0,"x_max":679,"o":"m 0 569 l 214 565 l 208 817 l 461 819 l 442 563 l 646 558 l 678 329 l 438 353 l 438 118 l 214 139 l 214 360 l 56 383 l 0 569 z "},",":{"ha":436,"x_min":0,"x_max":319,"o":"m 42 253 l 318 253 l 289 -62 l 0 -278 l 0 -62 l 42 253 z "},"-":{"ha":768,"x_min":0,"x_max":633,"o":"m 0 619 l 529 608 l 632 358 l 75 376 l 0 619 z "},".":{"ha":481,"x_min":0,"x_max":364,"o":"m 0 -260 l 64 69 l 363 76 l 318 -260 l 0 -260 z "},"/":{"ha":850,"x_min":0,"x_max":732,"o":"m 0 -278 l 449 1111 l 732 1111 l 394 -278 l 0 -278 z "},":":{"ha":471,"x_min":0,"x_max":351,"o":"m 56 668 l 350 668 l 286 360 l 26 381 l 56 668 m 47 40 l 308 18 l 286 -278 l 0 -278 l 47 40 z "},";":{"ha":461,"x_min":0,"x_max":351,"o":"m 56 910 l 350 910 l 286 601 l 26 622 l 56 910 m 47 281 l 308 258 l 286 -37 l 0 -257 l 0 -37 l 47 281 z "},"<":{"ha":688,"x_min":0,"x_max":542,"o":"m 540 614 l 351 386 l 540 193 l 351 60 l 1 378 l 438 774 l 540 614 z "},"=":{"ha":557,"x_min":-1,"x_max":418,"o":"m 417 589 l 417 417 l 0 407 l 0 579 l 417 589 m -1 296 l 418 296 l 418 150 l -1 115 l -1 296 z "},">":{"ha":694,"x_min":0,"x_max":540,"o":"m 0 568 l 103 729 l 539 333 l 189 14 l 0 149 l 189 340 l 0 568 z "},"?":{"ha":861,"x_min":-1,"x_max":725,"o":"m 0 1111 l 599 1111 l 724 907 l 706 483 l 515 271 l 482 86 l 206 82 l 213 317 l 500 593 l 357 881 l 69 824 l 0 1111 m 197 -39 l 482 -50 l 482 -278 l 194 -278 l 197 -39 z "},"A":{"ha":1103,"x_min":0,"x_max":964,"o":"m 307 1111 l 581 1111 l 964 -278 l 758 -278 l 607 21 l 360 21 l 239 -278 l 0 -278 l 307 1111 m 457 465 l 390 251 l 574 244 l 457 465 z "},"B":{"ha":1100,"x_min":-1,"x_max":808,"o":"m 313 275 l 313 -133 q 554 -19 554 -21 q 554 225 554 -19 l 313 275 m 521 639 q 521 840 521 639 l 275 903 l 313 574 l 521 639 m -1 1113 l -1 -279 l 525 -279 q 595 -242 525 -279 q 736 -169 665 -206 q 807 -133 807 -133 q 807 322 807 322 l 674 422 l 797 539 q 797 653 797 539 q 796 884 796 768 q 796 1000 796 1000 l 503 1113 l -1 1113 m 314 -132 l 314 274 l 553 224 l 553 -19 l 314 -132 m 276 900 l 519 839 l 519 640 l 314 576 l 276 900 m 1 -276 l 1 1110 q 61 1110 4 1110 q 188 1110 118 1110 q 331 1110 258 1110 q 453 1110 404 1110 q 503 1110 503 1110 l 794 999 q 794 539 794 539 q 740 487 785 529 q 671 422 696 444 q 739 372 694 406 q 806 321 783 338 l 806 -132 q 524 -276 525 -276 l 1 -276 m 0 1111 l 503 1111 l 796 999 l 796 539 l 672 422 l 807 322 l 807 -133 l 525 -278 l 0 -278 l 0 1111 m 519 840 l 275 901 l 313 575 l 519 640 l 519 840 m 313 275 l 313 -133 l 554 -19 l 554 224 l 313 275 z "},"C":{"ha":1108,"x_min":0,"x_max":972,"o":"m 971 724 l 696 706 l 426 833 l 210 417 l 442 -47 l 669 113 l 961 108 l 829 -278 l 192 -278 l 0 -47 l 0 833 l 192 1111 l 739 1111 l 971 724 z "},"D":{"ha":878,"x_min":0,"x_max":749,"o":"m 0 1111 l 413 1111 l 744 833 l 749 -47 l 354 -278 l 0 -278 l 0 1111 m 281 768 l 281 -17 l 528 192 l 499 632 l 281 768 z "},"E":{"ha":893,"x_min":0,"x_max":760,"o":"m 0 1111 l 686 1111 l 742 833 l 299 800 l 299 571 l 503 558 l 539 283 l 325 279 l 339 -4 l 672 -47 l 758 -278 l 0 -278 l 0 1111 z "},"F":{"ha":903,"x_min":0,"x_max":731,"o":"m 0 1111 l 674 1111 l 729 813 l 257 801 l 269 490 l 522 485 l 572 154 l 289 154 l 278 -278 l 0 -278 l 0 1111 z "},"G":{"ha":1106,"x_min":0,"x_max":964,"o":"m 203 1111 l 769 1111 l 867 838 l 351 824 l 203 272 l 513 -57 l 707 199 l 482 199 l 482 417 l 964 419 l 964 79 l 664 -278 l 304 -278 l 0 -71 l 0 753 l 203 1111 z "},"H":{"ha":1108,"x_min":0,"x_max":964,"o":"m 0 1111 l 290 1111 l 346 417 l 600 438 l 607 1111 l 964 1111 l 964 -278 l 683 -278 l 622 74 l 328 67 l 358 -278 l 0 -278 l 0 1111 z "},"I":{"ha":450,"x_min":0,"x_max":329,"o":"m 0 1111 l 288 1111 l 329 -278 l 0 -278 l 0 1111 z "},"J":{"ha":1108,"x_min":-1,"x_max":965,"o":"m 964 1113 l -1 1113 l 68 822 q 237 826 128 824 q 374 829 346 829 l 433 82 q 326 -61 432 82 q 230 53 294 -22 q 133 167 165 129 q -1 14 0 14 q 138 -279 136 -278 q 533 -278 532 -279 l 719 -12 q 711 101 719 -12 q 690 405 703 215 q 672 667 676 594 q 661 822 667 739 q 766 825 682 822 q 894 829 850 828 q 964 1113 904 869 m 69 824 l 1 1110 l 963 1110 l 893 832 q 788 828 872 831 q 658 824 704 825 q 665 737 658 824 q 680 528 671 650 q 697 283 689 406 q 712 74 706 160 q 718 -12 718 -12 l 532 -276 l 138 -276 l 1 14 l 133 164 q 326 -64 231 50 q 381 9 344 -39 q 435 82 417 57 l 375 832 q 208 828 317 831 q 69 824 100 825 m 0 1111 l 964 1111 l 894 831 l 660 824 l 718 -12 l 532 -278 l 138 -278 l 0 14 l 133 165 l 326 -62 l 433 82 l 375 831 l 69 824 l 0 1111 z "},"K":{"ha":1111,"x_min":0,"x_max":964,"o":"m 0 1111 l 290 1111 l 310 831 l 604 1117 l 850 954 l 497 450 l 964 0 l 774 -272 l 318 154 l 356 -278 l 0 -278 l 0 1111 z "},"L":{"ha":1103,"x_min":0,"x_max":964,"o":"m 0 1111 l 322 1111 l 281 42 l 882 42 l 964 -278 l 0 -278 l 0 1111 z "},"M":{"ha":1106,"x_min":0,"x_max":964,"o":"m 0 -278 l 0 1111 l 256 1111 l 456 715 l 656 1111 l 964 1111 l 964 -278 l 694 -278 l 607 365 l 456 196 l 311 376 l 311 -278 l 0 -278 z "},"N":{"ha":1108,"x_min":-1,"x_max":965,"o":"m -1 -279 l 319 -279 l 319 285 l 731 -278 q 964 -279 764 -279 l 964 1113 l 658 1113 l 613 535 q 282 1113 282 1111 q -1 1113 282 1113 l -1 -279 m 318 -276 l 1 -276 l 1 1110 l 282 1110 l 614 529 l 660 1110 l 963 1110 l 963 -276 l 732 -276 l 318 289 l 318 -276 m 0 -278 l 0 1111 l 282 1111 l 614 532 l 658 1111 l 964 1111 l 964 -278 l 731 -278 l 319 288 l 319 -278 l 0 -278 z "},"O":{"ha":1104,"x_min":0,"x_max":964,"o":"m 646 653 l 315 653 l 294 129 l 672 161 l 646 653 m 271 1111 l 693 1111 l 964 750 l 964 15 l 743 -278 l 240 -278 l 0 15 l 0 719 l 271 1111 m 440 786 z "},"P":{"ha":883,"x_min":0,"x_max":751,"o":"m 0 1111 l 342 1114 l 751 956 l 738 354 l 313 181 l 336 -278 l 0 -278 l 0 1111 m 286 849 l 324 410 l 510 515 l 482 817 l 286 849 z "},"Q":{"ha":1108,"x_min":0,"x_max":964,"o":"m 310 1111 l 654 1111 l 964 750 l 964 240 l 826 47 l 964 -278 l 647 -186 l 593 -278 l 247 -278 l 0 142 l 0 607 l 310 1111 m 439 706 l 253 417 l 453 108 l 571 243 l 690 378 l 439 706 z "},"R":{"ha":1008,"x_min":0,"x_max":875,"o":"m 0 1111 l 671 1108 l 813 615 l 408 408 l 875 -146 l 606 -278 l 282 207 l 310 -278 l 0 -278 l 0 1111 m 282 882 l 286 588 l 510 767 l 282 882 z "},"S":{"ha":1108,"x_min":-1,"x_max":964,"o":"m 878 828 l 472 849 l 360 638 l 964 308 l 964 -47 l 804 -278 l 0 -278 l 106 -18 l 426 -7 l 607 156 l 0 554 l 0 840 l 161 1111 l 964 1111 l 878 828 z "},"T":{"ha":1108,"x_min":0,"x_max":964,"o":"m 0 1111 l 964 1111 l 882 838 l 606 838 l 617 -278 l 364 -278 l 318 838 l 72 838 l 0 1111 z "},"U":{"ha":1108,"x_min":0,"x_max":964,"o":"m 0 1111 l 289 1111 l 315 158 l 482 68 l 633 126 l 667 1111 l 964 1111 l 964 -21 l 754 -278 l 225 -278 l 0 -74 l 0 1111 z "},"V":{"ha":1108,"x_min":0,"x_max":964,"o":"m 0 1111 l 294 1111 l 482 417 l 696 1111 l 964 1111 l 626 -276 l 283 -276 l 0 1111 z "},"W":{"ha":1114,"x_min":0,"x_max":964,"o":"m 0 1111 l 265 1111 l 278 281 l 439 454 l 644 300 l 631 1111 l 964 1111 l 964 -274 l 722 -274 l 706 -274 l 447 50 l 265 -276 l 0 -274 l 0 1111 z "},"X":{"ha":1108,"x_min":0,"x_max":964,"o":"m 200 1111 l 449 640 l 764 1111 l 964 1111 l 964 860 l 596 383 l 964 -64 l 964 -278 l 740 -278 l 482 150 l 197 -278 l 0 -278 l 0 -12 l 299 383 l 0 854 l 0 1111 l 200 1111 m 964 -278 z "},"Y":{"ha":1108,"x_min":-1,"x_max":964,"o":"m 0 1111 l 317 1111 l 463 665 l 675 1111 l 964 1111 l 588 417 l 619 -278 l 336 -278 l 306 451 l 0 1111 z "},"Z":{"ha":1114,"x_min":0,"x_max":964,"o":"m 0 1111 l 964 1111 l 538 54 l 863 68 l 964 -278 l 0 -278 l 519 793 l 64 793 l 0 1111 z "},"`":{"ha":386,"x_min":0,"x_max":274,"o":"m 0 1111 l 186 1110 l 274 851 l 108 817 l 0 1111 z "},"a":{"ha":1103,"x_min":0,"x_max":964,"o":"m 307 1111 l 581 1111 l 964 -278 l 758 -278 l 607 21 l 360 21 l 239 -278 l 0 -278 l 307 1111 m 457 465 l 390 251 l 574 244 l 457 465 z "},"b":{"ha":1100,"x_min":-1,"x_max":808,"o":"m 313 275 l 313 -133 q 554 -19 554 -21 q 554 225 554 -19 l 313 275 m 521 639 q 521 840 521 639 l 275 903 l 313 574 l 521 639 m -1 1113 l -1 -279 l 525 -279 q 595 -242 525 -279 q 736 -169 665 -206 q 807 -133 807 -133 q 807 322 807 322 l 674 422 l 797 539 q 797 653 797 539 q 796 884 796 768 q 796 1000 796 1000 l 503 1113 l -1 1113 m 314 -132 l 314 274 l 553 224 l 553 -19 l 314 -132 m 276 900 l 519 839 l 519 640 l 314 576 l 276 900 m 1 -276 l 1 1110 q 61 1110 4 1110 q 188 1110 118 1110 q 331 1110 258 1110 q 453 1110 404 1110 q 503 1110 503 1110 l 794 999 q 794 539 794 539 q 740 487 785 529 q 671 422 696 444 q 739 372 694 406 q 806 321 783 338 l 806 -132 q 524 -276 525 -276 l 1 -276 m 0 1111 l 503 1111 l 796 999 l 796 539 l 672 422 l 807 322 l 807 -133 l 525 -278 l 0 -278 l 0 1111 m 519 840 l 275 901 l 313 575 l 519 640 l 519 840 m 313 275 l 313 -133 l 554 -19 l 554 224 l 313 275 z "},"c":{"ha":1108,"x_min":0,"x_max":972,"o":"m 971 724 l 696 706 l 426 833 l 210 417 l 442 -47 l 669 113 l 961 108 l 829 -278 l 192 -278 l 0 -47 l 0 833 l 192 1111 l 739 1111 l 971 724 z "},"d":{"ha":878,"x_min":0,"x_max":749,"o":"m 0 1111 l 413 1111 l 744 833 l 749 -47 l 354 -278 l 0 -278 l 0 1111 m 281 768 l 281 -17 l 528 192 l 499 632 l 281 768 z "},"e":{"ha":893,"x_min":0,"x_max":760,"o":"m 0 1111 l 686 1111 l 742 833 l 299 800 l 299 571 l 503 558 l 539 283 l 325 279 l 339 -4 l 672 -47 l 758 -278 l 0 -278 l 0 1111 z "},"f":{"ha":903,"x_min":0,"x_max":731,"o":"m 0 1111 l 674 1111 l 729 813 l 257 801 l 269 490 l 522 485 l 572 154 l 289 154 l 278 -278 l 0 -278 l 0 1111 z "},"g":{"ha":1106,"x_min":0,"x_max":964,"o":"m 203 1111 l 769 1111 l 867 838 l 351 824 l 203 272 l 513 -57 l 707 199 l 482 199 l 482 417 l 964 419 l 964 79 l 664 -278 l 304 -278 l 0 -71 l 0 753 l 203 1111 z "},"h":{"ha":1108,"x_min":0,"x_max":964,"o":"m 0 1111 l 290 1111 l 346 417 l 600 438 l 607 1111 l 964 1111 l 964 -278 l 683 -278 l 622 74 l 328 67 l 358 -278 l 0 -278 l 0 1111 z "},"i":{"ha":450,"x_min":0,"x_max":329,"o":"m 0 1111 l 288 1111 l 329 -278 l 0 -278 l 0 1111 z "},"j":{"ha":1108,"x_min":-1,"x_max":965,"o":"m 964 1113 l -1 1113 l 68 822 q 237 826 128 824 q 374 829 346 829 l 433 82 q 326 -61 432 82 q 230 53 294 -22 q 133 167 165 129 q -1 14 0 14 q 138 -279 136 -278 q 533 -278 532 -279 l 719 -12 q 711 101 719 -12 q 690 405 703 215 q 672 667 676 594 q 661 822 667 739 q 766 825 682 822 q 894 829 850 828 q 964 1113 904 869 m 69 824 l 1 1110 l 963 1110 l 893 832 q 788 828 872 831 q 658 824 704 825 q 665 737 658 824 q 680 528 671 650 q 697 283 689 406 q 712 74 706 160 q 718 -12 718 -12 l 532 -276 l 138 -276 l 1 14 l 133 164 q 326 -64 231 50 q 381 9 344 -39 q 435 82 417 57 l 375 832 q 208 828 317 831 q 69 824 100 825 m 0 1111 l 964 1111 l 894 831 l 660 824 l 718 -12 l 532 -278 l 138 -278 l 0 14 l 133 165 l 326 -62 l 433 82 l 375 831 l 69 824 l 0 1111 z "},"k":{"ha":1111,"x_min":0,"x_max":964,"o":"m 0 1111 l 290 1111 l 310 831 l 604 1117 l 850 954 l 497 450 l 964 0 l 774 -272 l 318 154 l 356 -278 l 0 -278 l 0 1111 z "},"l":{"ha":1103,"x_min":0,"x_max":964,"o":"m 0 1111 l 322 1111 l 281 42 l 882 42 l 964 -278 l 0 -278 l 0 1111 z "},"m":{"ha":1106,"x_min":0,"x_max":964,"o":"m 0 -278 l 0 1111 l 256 1111 l 456 715 l 656 1111 l 964 1111 l 964 -278 l 694 -278 l 607 365 l 456 196 l 311 376 l 311 -278 l 0 -278 z "},"n":{"ha":1108,"x_min":-1,"x_max":965,"o":"m -1 -279 l 319 -279 l 319 285 l 731 -278 q 964 -279 764 -279 l 964 1113 l 658 1113 l 613 535 q 282 1113 282 1111 q -1 1113 282 1113 l -1 -279 m 318 -276 l 1 -276 l 1 1110 l 282 1110 l 614 529 l 660 1110 l 963 1110 l 963 -276 l 732 -276 l 318 289 l 318 -276 m 0 -278 l 0 1111 l 282 1111 l 614 532 l 658 1111 l 964 1111 l 964 -278 l 731 -278 l 319 288 l 319 -278 l 0 -278 z "},"o":{"ha":1104,"x_min":0,"x_max":964,"o":"m 646 653 l 315 653 l 294 129 l 672 161 l 646 653 m 271 1111 l 693 1111 l 964 750 l 964 15 l 743 -278 l 240 -278 l 0 15 l 0 719 l 271 1111 m 440 786 z "},"p":{"ha":883,"x_min":0,"x_max":751,"o":"m 0 1111 l 342 1114 l 751 956 l 738 354 l 313 181 l 336 -278 l 0 -278 l 0 1111 m 286 849 l 324 410 l 510 515 l 482 817 l 286 849 z "},"q":{"ha":1108,"x_min":0,"x_max":964,"o":"m 310 1111 l 654 1111 l 964 750 l 964 240 l 826 47 l 964 -278 l 647 -186 l 593 -278 l 247 -278 l 0 142 l 0 607 l 310 1111 m 439 706 l 253 417 l 453 108 l 571 243 l 690 378 l 439 706 z "},"r":{"ha":1008,"x_min":0,"x_max":875,"o":"m 0 1111 l 671 1108 l 813 615 l 408 408 l 875 -146 l 606 -278 l 282 207 l 310 -278 l 0 -278 l 0 1111 m 282 882 l 286 588 l 510 767 l 282 882 z "},"s":{"ha":1108,"x_min":-1,"x_max":964,"o":"m 878 828 l 472 849 l 360 638 l 964 308 l 964 -47 l 804 -278 l 0 -278 l 106 -18 l 426 -7 l 607 156 l 0 554 l 0 840 l 161 1111 l 964 1111 l 878 828 z "},"t":{"ha":1108,"x_min":0,"x_max":964,"o":"m 0 1111 l 964 1111 l 882 838 l 606 838 l 617 -278 l 364 -278 l 318 838 l 72 838 l 0 1111 z "},"u":{"ha":1108,"x_min":0,"x_max":964,"o":"m 0 1111 l 289 1111 l 315 158 l 482 68 l 633 126 l 667 1111 l 964 1111 l 964 -21 l 754 -278 l 225 -278 l 0 -74 l 0 1111 z "},"v":{"ha":1108,"x_min":0,"x_max":964,"o":"m 0 1111 l 294 1111 l 482 417 l 696 1111 l 964 1111 l 626 -276 l 283 -276 l 0 1111 z "},"w":{"ha":1114,"x_min":0,"x_max":964,"o":"m 0 1111 l 265 1111 l 278 281 l 439 454 l 644 300 l 631 1111 l 964 1111 l 964 -274 l 722 -274 l 706 -274 l 447 50 l 265 -276 l 0 -274 l 0 1111 z "},"x":{"ha":1108,"x_min":0,"x_max":964,"o":"m 200 1111 l 449 640 l 764 1111 l 964 1111 l 964 860 l 596 383 l 964 -64 l 964 -278 l 740 -278 l 482 150 l 197 -278 l 0 -278 l 0 -12 l 299 383 l 0 854 l 0 1111 l 200 1111 m 964 -278 z "},"y":{"ha":1108,"x_min":-1,"x_max":964,"o":"m 0 1111 l 317 1111 l 463 665 l 675 1111 l 964 1111 l 588 417 l 619 -278 l 336 -278 l 306 451 l 0 1111 z "},"z":{"ha":1114,"x_min":0,"x_max":964,"o":"m 0 1111 l 964 1111 l 538 54 l 863 68 l 964 -278 l 0 -278 l 519 793 l 64 793 l 0 1111 z "},"{":{"ha":708,"x_min":0,"x_max":575,"o":"m 574 1111 l 513 900 l 186 449 l 513 -64 l 574 -260 l 186 -260 l 0 74 l 0 786 l 224 1111 l 574 1111 z "},"}":{"ha":706,"x_min":0,"x_max":583,"o":"m 0 1111 l 356 1111 l 582 782 l 582 60 l 393 -278 l 0 -278 l 63 -79 l 393 440 l 63 897 l 0 1111 z "},"ª":{"ha":1103,"x_min":0,"x_max":964,"o":"m 307 1111 l 581 1111 l 964 -278 l 758 -278 l 607 21 l 360 21 l 239 -278 l 0 -278 l 307 1111 m 457 465 l 390 251 l 574 244 l 457 465 z "},"­":{"ha":768,"x_min":0,"x_max":633,"o":"m 0 619 l 529 608 l 632 358 l 75 376 l 0 619 z "},"´":{"ha":386,"x_min":0,"x_max":274,"o":"m 0 1111 l 186 1110 l 274 851 l 108 817 l 0 1111 z "},"·":{"ha":481,"x_min":0,"x_max":364,"o":"m 0 -260 l 64 69 l 363 76 l 318 -260 l 0 -260 z "},"¸":{"ha":436,"x_min":0,"x_max":319,"o":"m 42 253 l 318 253 l 289 -62 l 0 -278 l 0 -62 l 42 253 z "},"À":{"ha":878,"x_min":0,"x_max":743,"o":"m 236 793 l 447 793 l 743 -278 l 585 -278 l 468 -47 l 278 -47 l 185 -278 l 0 -278 l 236 793 m 353 296 l 301 131 l 442 125 l 353 296 m 86 913 l 353 1100 l 472 949 l 164 824 l 86 913 z "},"Á":{"ha":881,"x_min":-1,"x_max":743,"o":"m 236 793 l 447 793 l 743 -278 l 585 -278 l 468 -47 l 278 -47 l 185 -278 l 0 -278 l 236 793 m 353 296 l 301 131 l 442 125 l 353 296 m 565 904 l 486 814 l 178 939 l 297 1090 l 565 904 z "},"Â":{"ha":886,"x_min":-1,"x_max":743,"o":"m 236 793 l 447 793 l 743 -278 l 585 -278 l 468 -47 l 278 -47 l 185 -278 l 0 -278 l 236 793 m 353 296 l 301 131 l 442 125 l 353 296 m 565 904 l 486 814 l 178 939 l 297 1090 l 565 904 z "},"Ã":{"ha":1103,"x_min":0,"x_max":964,"o":"m 307 1111 l 581 1111 l 964 -278 l 758 -278 l 607 21 l 360 21 l 239 -278 l 0 -278 l 307 1111 m 457 465 l 390 251 l 574 244 l 457 465 z "},"Ä":{"ha":1103,"x_min":0,"x_max":964,"o":"m 307 1111 l 581 1111 l 964 -278 l 758 -278 l 607 21 l 360 21 l 239 -278 l 0 -278 l 307 1111 m 457 465 l 390 251 l 574 244 l 457 465 z "},"Å":{"ha":1103,"x_min":0,"x_max":964,"o":"m 307 1111 l 581 1111 l 964 -278 l 758 -278 l 607 21 l 360 21 l 239 -278 l 0 -278 l 307 1111 m 457 465 l 390 251 l 574 244 l 457 465 z "},"Ç":{"ha":1108,"x_min":0,"x_max":972,"o":"m 971 724 l 696 706 l 426 833 l 210 417 l 442 -47 l 669 113 l 961 108 l 829 -278 l 192 -278 l 0 -47 l 0 833 l 192 1111 l 739 1111 l 971 724 z "},"È":{"ha":742,"x_min":0,"x_max":586,"o":"m 0 793 l 529 793 l 572 579 l 231 553 l 231 376 l 388 368 l 415 156 l 250 151 l 261 -67 l 518 -100 l 585 -278 l 0 -278 l 0 793 m 67 913 l 333 1100 l 453 949 l 146 824 l 67 913 z "},"É":{"ha":744,"x_min":0,"x_max":586,"o":"m 0 793 l 529 793 l 572 579 l 231 553 l 231 376 l 388 368 l 415 156 l 250 151 l 261 -67 l 518 -100 l 585 -278 l 0 -278 l 0 793 m 511 913 l 433 824 l 125 949 l 244 1100 l 511 913 z "},"Ê":{"ha":728,"x_min":0,"x_max":586,"o":"m 0 793 l 529 793 l 572 579 l 231 553 l 231 376 l 388 368 l 415 156 l 250 151 l 261 -67 l 518 -100 l 585 -278 l 0 -278 l 0 793 m 122 822 l 29 881 l 253 1083 l 442 931 l 364 822 l 253 931 l 122 822 z "},"Ë":{"ha":893,"x_min":0,"x_max":760,"o":"m 0 1111 l 686 1111 l 742 833 l 299 800 l 299 571 l 503 558 l 539 283 l 325 279 l 339 -4 l 672 -47 l 758 -278 l 0 -278 l 0 1111 z "},"Ì":{"ha":450,"x_min":0,"x_max":329,"o":"m 0 1111 l 288 1111 l 329 -278 l 0 -278 l 0 1111 z "},"Í":{"ha":450,"x_min":0,"x_max":329,"o":"m 0 1111 l 288 1111 l 329 -278 l 0 -278 l 0 1111 z "},"Î":{"ha":450,"x_min":0,"x_max":329,"o":"m 0 1111 l 288 1111 l 329 -278 l 0 -278 l 0 1111 z "},"Ï":{"ha":450,"x_min":0,"x_max":329,"o":"m 0 1111 l 288 1111 l 329 -278 l 0 -278 l 0 1111 z "},"Ñ":{"ha":1108,"x_min":-1,"x_max":965,"o":"m -1 -279 l 319 -279 l 319 285 l 731 -278 q 964 -279 764 -279 l 964 1113 l 658 1113 l 613 535 q 282 1113 282 1111 q -1 1113 282 1113 l -1 -279 m 318 -276 l 1 -276 l 1 1110 l 282 1110 l 614 529 l 660 1110 l 963 1110 l 963 -276 l 732 -276 l 318 289 l 318 -276 m 0 -278 l 0 1111 l 282 1111 l 614 532 l 658 1111 l 964 1111 l 964 -278 l 731 -278 l 319 288 l 319 -278 l 0 -278 z "},"Ò":{"ha":1104,"x_min":0,"x_max":964,"o":"m 646 653 l 315 653 l 294 129 l 672 161 l 646 653 m 271 1111 l 693 1111 l 964 750 l 964 15 l 743 -278 l 240 -278 l 0 15 l 0 719 l 271 1111 m 440 786 z "},"Ó":{"ha":1104,"x_min":0,"x_max":964,"o":"m 646 653 l 315 653 l 294 129 l 672 161 l 646 653 m 271 1111 l 693 1111 l 964 750 l 964 15 l 743 -278 l 240 -278 l 0 15 l 0 719 l 271 1111 m 440 786 z "},"Ô":{"ha":1104,"x_min":0,"x_max":964,"o":"m 646 653 l 315 653 l 294 129 l 672 161 l 646 653 m 271 1111 l 693 1111 l 964 750 l 964 15 l 743 -278 l 240 -278 l 0 15 l 0 719 l 271 1111 m 440 786 z "},"Õ":{"ha":1104,"x_min":0,"x_max":964,"o":"m 646 653 l 315 653 l 294 129 l 672 161 l 646 653 m 271 1111 l 693 1111 l 964 750 l 964 15 l 743 -278 l 240 -278 l 0 15 l 0 719 l 271 1111 m 440 786 z "},"Ö":{"ha":1104,"x_min":0,"x_max":964,"o":"m 646 653 l 315 653 l 294 129 l 672 161 l 646 653 m 271 1111 l 693 1111 l 964 750 l 964 15 l 743 -278 l 240 -278 l 0 15 l 0 719 l 271 1111 m 440 786 z "},"Ù":{"ha":1108,"x_min":0,"x_max":964,"o":"m 0 1111 l 289 1111 l 315 158 l 482 68 l 633 126 l 667 1111 l 964 1111 l 964 -21 l 754 -278 l 225 -278 l 0 -74 l 0 1111 z "},"Ú":{"ha":1108,"x_min":0,"x_max":964,"o":"m 0 1111 l 289 1111 l 315 158 l 482 68 l 633 126 l 667 1111 l 964 1111 l 964 -21 l 754 -278 l 225 -278 l 0 -74 l 0 1111 z "},"Û":{"ha":1108,"x_min":0,"x_max":964,"o":"m 0 1111 l 289 1111 l 315 158 l 482 68 l 633 126 l 667 1111 l 964 1111 l 964 -21 l 754 -278 l 225 -278 l 0 -74 l 0 1111 z "},"Ü":{"ha":1108,"x_min":0,"x_max":964,"o":"m 0 1111 l 289 1111 l 315 158 l 482 68 l 633 126 l 667 1111 l 964 1111 l 964 -21 l 754 -278 l 225 -278 l 0 -74 l 0 1111 z "},"Ý":{"ha":1108,"x_min":-1,"x_max":964,"o":"m 0 1111 l 317 1111 l 463 665 l 675 1111 l 964 1111 l 588 417 l 619 -278 l 336 -278 l 306 451 l 0 1111 z "},"à":{"ha":878,"x_min":0,"x_max":743,"o":"m 236 793 l 447 793 l 743 -278 l 585 -278 l 468 -47 l 278 -47 l 185 -278 l 0 -278 l 236 793 m 353 296 l 301 131 l 442 125 l 353 296 m 86 913 l 353 1100 l 472 949 l 164 824 l 86 913 z "},"á":{"ha":881,"x_min":-1,"x_max":743,"o":"m 236 793 l 447 793 l 743 -278 l 585 -278 l 468 -47 l 278 -47 l 185 -278 l 0 -278 l 236 793 m 353 296 l 301 131 l 442 125 l 353 296 m 565 904 l 486 814 l 178 939 l 297 1090 l 565 904 z "},"â":{"ha":886,"x_min":-1,"x_max":743,"o":"m 236 793 l 447 793 l 743 -278 l 585 -278 l 468 -47 l 278 -47 l 185 -278 l 0 -278 l 236 793 m 353 296 l 301 131 l 442 125 l 353 296 m 565 904 l 486 814 l 178 939 l 297 1090 l 565 904 z "},"ã":{"ha":1103,"x_min":0,"x_max":964,"o":"m 307 1111 l 581 1111 l 964 -278 l 758 -278 l 607 21 l 360 21 l 239 -278 l 0 -278 l 307 1111 m 457 465 l 390 251 l 574 244 l 457 465 z "},"ä":{"ha":1103,"x_min":0,"x_max":964,"o":"m 307 1111 l 581 1111 l 964 -278 l 758 -278 l 607 21 l 360 21 l 239 -278 l 0 -278 l 307 1111 m 457 465 l 390 251 l 574 244 l 457 465 z "},"å":{"ha":1103,"x_min":0,"x_max":964,"o":"m 307 1111 l 581 1111 l 964 -278 l 758 -278 l 607 21 l 360 21 l 239 -278 l 0 -278 l 307 1111 m 457 465 l 390 251 l 574 244 l 457 465 z "},"ç":{"ha":1108,"x_min":0,"x_max":972,"o":"m 971 724 l 696 706 l 426 833 l 210 417 l 442 -47 l 669 113 l 961 108 l 829 -278 l 192 -278 l 0 -47 l 0 833 l 192 1111 l 739 1111 l 971 724 z "},"è":{"ha":742,"x_min":0,"x_max":586,"o":"m 0 793 l 529 793 l 572 579 l 231 553 l 231 376 l 388 368 l 415 156 l 250 151 l 261 -67 l 518 -100 l 585 -278 l 0 -278 l 0 793 m 67 913 l 333 1100 l 453 949 l 146 824 l 67 913 z "},"é":{"ha":744,"x_min":0,"x_max":586,"o":"m 0 793 l 529 793 l 572 579 l 231 553 l 231 376 l 388 368 l 415 156 l 250 151 l 261 -67 l 518 -100 l 585 -278 l 0 -278 l 0 793 m 511 913 l 433 824 l 125 949 l 244 1100 l 511 913 z "},"ê":{"ha":728,"x_min":0,"x_max":586,"o":"m 0 793 l 529 793 l 572 579 l 231 553 l 231 376 l 388 368 l 415 156 l 250 151 l 261 -67 l 518 -100 l 585 -278 l 0 -278 l 0 793 m 122 822 l 29 881 l 253 1083 l 442 931 l 364 822 l 253 931 l 122 822 z "},"ë":{"ha":893,"x_min":0,"x_max":760,"o":"m 0 1111 l 686 1111 l 742 833 l 299 800 l 299 571 l 503 558 l 539 283 l 325 279 l 339 -4 l 672 -47 l 758 -278 l 0 -278 l 0 1111 z "},"ì":{"ha":450,"x_min":0,"x_max":329,"o":"m 0 1111 l 288 1111 l 329 -278 l 0 -278 l 0 1111 z "},"í":{"ha":450,"x_min":0,"x_max":329,"o":"m 0 1111 l 288 1111 l 329 -278 l 0 -278 l 0 1111 z "},"î":{"ha":450,"x_min":0,"x_max":329,"o":"m 0 1111 l 288 1111 l 329 -278 l 0 -278 l 0 1111 z "},"ï":{"ha":450,"x_min":0,"x_max":329,"o":"m 0 1111 l 288 1111 l 329 -278 l 0 -278 l 0 1111 z "},"ñ":{"ha":1108,"x_min":-1,"x_max":965,"o":"m -1 -279 l 319 -279 l 319 285 l 731 -278 q 964 -279 764 -279 l 964 1113 l 658 1113 l 613 535 q 282 1113 282 1111 q -1 1113 282 1113 l -1 -279 m 318 -276 l 1 -276 l 1 1110 l 282 1110 l 614 529 l 660 1110 l 963 1110 l 963 -276 l 732 -276 l 318 289 l 318 -276 m 0 -278 l 0 1111 l 282 1111 l 614 532 l 658 1111 l 964 1111 l 964 -278 l 731 -278 l 319 288 l 319 -278 l 0 -278 z "},"ò":{"ha":1104,"x_min":0,"x_max":964,"o":"m 646 653 l 315 653 l 294 129 l 672 161 l 646 653 m 271 1111 l 693 1111 l 964 750 l 964 15 l 743 -278 l 240 -278 l 0 15 l 0 719 l 271 1111 m 440 786 z "},"ó":{"ha":1104,"x_min":0,"x_max":964,"o":"m 646 653 l 315 653 l 294 129 l 672 161 l 646 653 m 271 1111 l 693 1111 l 964 750 l 964 15 l 743 -278 l 240 -278 l 0 15 l 0 719 l 271 1111 m 440 786 z "},"ô":{"ha":1104,"x_min":0,"x_max":964,"o":"m 646 653 l 315 653 l 294 129 l 672 161 l 646 653 m 271 1111 l 693 1111 l 964 750 l 964 15 l 743 -278 l 240 -278 l 0 15 l 0 719 l 271 1111 m 440 786 z "},"õ":{"ha":1104,"x_min":0,"x_max":964,"o":"m 646 653 l 315 653 l 294 129 l 672 161 l 646 653 m 271 1111 l 693 1111 l 964 750 l 964 15 l 743 -278 l 240 -278 l 0 15 l 0 719 l 271 1111 m 440 786 z "},"ö":{"ha":1104,"x_min":0,"x_max":964,"o":"m 646 653 l 315 653 l 294 129 l 672 161 l 646 653 m 271 1111 l 693 1111 l 964 750 l 964 15 l 743 -278 l 240 -278 l 0 15 l 0 719 l 271 1111 m 440 786 z "},"ù":{"ha":1108,"x_min":0,"x_max":964,"o":"m 0 1111 l 289 1111 l 315 158 l 482 68 l 633 126 l 667 1111 l 964 1111 l 964 -21 l 754 -278 l 225 -278 l 0 -74 l 0 1111 z "},"ú":{"ha":1108,"x_min":0,"x_max":964,"o":"m 0 1111 l 289 1111 l 315 158 l 482 68 l 633 126 l 667 1111 l 964 1111 l 964 -21 l 754 -278 l 225 -278 l 0 -74 l 0 1111 z "},"û":{"ha":1108,"x_min":0,"x_max":964,"o":"m 0 1111 l 289 1111 l 315 158 l 482 68 l 633 126 l 667 1111 l 964 1111 l 964 -21 l 754 -278 l 225 -278 l 0 -74 l 0 1111 z "},"ü":{"ha":1108,"x_min":0,"x_max":964,"o":"m 0 1111 l 289 1111 l 315 158 l 482 68 l 633 126 l 667 1111 l 964 1111 l 964 -21 l 754 -278 l 225 -278 l 0 -74 l 0 1111 z "}}}
